<svg width="34" height="16" viewBox="0 0 34 16" fill="none" xmlns="http://www.w3.org/2000/svg">
<path d="M33 9C33.5523 9 34 8.55228 34 8C34 7.44772 33.5523 7 33 7V9ZM1 7C0.447715 7 0 7.44772 0 8C0 8.55228 0.447715 9 1 9V7ZM33 2C33.5523 2 34 1.55228 34 1C34 0.447715 33.5523 0 33 0V2ZM1 0C0.447715 0 0 0.447715 0 1C0 1.55228 0.447715 2 1 2V0ZM33 16C33.5523 16 34 15.5523 34 15C34 14.4477 33.5523 14 33 14V16ZM1 14C0.447715 14 0 14.4477 0 15C0 15.5523 0.447715 16 1 16V14ZM33 7H1V9H33V7ZM33 0H1V2H33V0ZM33 14H1V16H33V14Z" fill="white"/>
</svg>
