<svg width="30" height="30" viewBox="0 0 30 30" fill="none" xmlns="http://www.w3.org/2000/svg">
<path d="M 0 15 C 0 6.716 6.716 0 15 0 C 23.284 0 30 6.716 30 15 C 30 23.284 23.284 30 15 30 C 6.716 30 0 23.284 0 15 Z M 19.178 14.994 L 24.831 20.819 L 24.831 9.169 Z M 12.974 16.32 C 13.499 16.866 14.224 17.175 14.982 17.175 C 15.739 17.175 16.464 16.866 16.989 16.32 L 24.364 8.641 L 5.599 8.641 Z M 5.169 9.169 L 5.169 20.819 L 10.85 14.97 Z M 17.415 16.728 C 16.782 17.387 15.895 17.765 14.982 17.765 C 14.068 17.765 13.181 17.387 12.549 16.728 L 11.298 15.426 L 5.599 21.359 L 24.364 21.359 L 18.666 15.426 Z" fill="white"></path>
</svg>
