<svg width="30" height="30" viewBox="0 0 30 30" fill="none" xmlns="http://www.w3.org/2000/svg">
<path d="M 0 15 C 0 6.716 6.716 0 15 0 C 23.284 0 30 6.716 30 15 C 30 23.284 23.284 30 15 30 C 6.716 30 0 23.284 0 15 Z M 15.182 20.937 C 17.513 20.937 20.769 20.994 21.954 18.624 C 22.4 17.718 22.5 16.674 22.5 15.687 C 22.5 14.39 22.141 13.157 21.281 12.154 C 21.438 11.671 21.517 11.166 21.513 10.658 C 21.513 9.993 21.363 9.659 21.057 9.057 C 19.658 9.057 18.75 9.32 17.688 10.145 C 16.867 9.957 16.026 9.864 15.184 9.868 C 14.254 9.865 13.327 9.969 12.421 10.178 C 11.341 9.343 10.435 9.065 9.02 9.065 C 8.718 9.657 8.564 10.003 8.564 10.668 C 8.564 11.18 8.645 11.689 8.805 12.176 C 7.956 13.147 7.492 14.396 7.5 15.687 C 7.481 16.702 7.697 17.708 8.132 18.626 C 9.363 21.022 12.813 20.937 15.182 20.937 Z M 11.876 14.694 C 12.463 14.715 13.048 14.777 13.627 14.88 C 15.762 15.203 16.885 14.694 18.194 14.694 C 19.656 14.694 20.491 15.89 20.491 17.248 C 20.491 19.966 17.982 20.38 15.786 20.38 L 14.28 20.38 C 12.091 20.38 9.579 19.964 9.579 17.248 C 9.579 15.89 10.413 14.694 11.876 14.694 Z M 17.909 18.947 C 18.717 18.947 19.056 17.889 19.056 17.242 C 19.056 16.595 18.717 15.537 17.909 15.537 C 17.102 15.537 16.763 16.595 16.763 17.242 C 16.763 17.889 17.104 18.947 17.909 18.947 Z M 12.168 18.948 C 12.975 18.948 13.317 17.89 13.317 17.242 C 13.317 16.595 12.975 15.539 12.168 15.539 C 11.361 15.539 11.022 16.597 11.022 17.242 C 11.022 17.888 11.363 18.948 12.168 18.948 Z" fill="#FFFFFF"></path>
</svg>
