<svg width="30" height="30" viewBox="0 0 30 30" fill="none" xmlns="http://www.w3.org/2000/svg">
<path d="M 0 15 C 0 6.715 6.716 0 15 0 C 23.284 0 30 6.715 30 15 C 30 23.284 23.284 30 15 30 C 6.716 30 0 23.284 0 15 Z M 19.835 11.354 C 17.93 11.354 17.08 12.402 16.604 13.135 L 16.604 13.171 L 16.58 13.171 C 16.586 13.159 16.596 13.147 16.604 13.135 L 16.604 11.607 L 13.018 11.607 C 13.066 12.619 13.018 22.391 13.018 22.391 L 16.603 22.391 L 16.603 16.368 C 16.603 16.045 16.628 15.725 16.722 15.494 C 16.982 14.849 17.571 14.183 18.561 14.183 C 19.859 14.183 20.377 15.173 20.377 16.621 L 20.377 22.391 L 23.962 22.391 L 23.962 16.207 C 23.962 12.895 22.194 11.354 19.835 11.354 Z M 9.267 6.409 C 8.04 6.409 7.238 7.214 7.238 8.272 C 7.238 9.307 8.017 10.136 9.22 10.136 L 9.243 10.136 C 10.494 10.136 11.271 9.307 11.271 8.272 C 11.247 7.214 10.494 6.409 9.267 6.409 Z M 7.451 22.391 L 11.035 22.391 L 11.035 11.607 L 7.451 11.607 Z" fill="white"></path>
</svg>
