<svg width="30" height="30" viewBox="0 0 30 30" fill="none" xmlns="http://www.w3.org/2000/svg">
<path d="M 0 15 C 0 6.716 6.716 0 15 0 C 23.284 0 30 6.716 30 15 C 30 23.284 23.284 30 15 30 C 6.716 30 0 23.284 0 15 Z M 24.198 19.642 C 23.901 19.176 23.563 18.737 23.189 18.331 C 22.679 17.772 22.115 17.262 21.586 16.72 C 21.256 16.377 21.239 16.147 21.467 15.737 C 21.53 15.619 21.6 15.505 21.677 15.396 C 22.282 14.571 22.906 13.754 23.497 12.916 C 23.862 12.392 24.206 11.848 24.35 11.211 C 24.369 11.154 24.377 11.093 24.372 11.032 C 24.368 10.971 24.35 10.913 24.322 10.859 C 24.293 10.805 24.254 10.758 24.206 10.721 C 24.158 10.683 24.103 10.655 24.044 10.64 C 23.878 10.592 23.706 10.569 23.533 10.572 L 20.625 10.572 C 20.114 10.572 19.964 10.677 19.773 11.156 C 19.421 12.089 18.964 12.979 18.409 13.807 C 18.096 14.262 17.747 14.691 17.368 15.092 C 17.075 15.402 16.78 15.295 16.686 14.866 C 16.62 14.552 16.591 14.233 16.599 13.913 C 16.607 13.105 16.647 12.298 16.664 11.491 C 16.669 11.301 16.655 11.111 16.621 10.925 C 16.606 10.756 16.537 10.597 16.424 10.471 C 16.312 10.345 16.161 10.259 15.996 10.226 C 15.715 10.167 15.43 10.138 15.143 10.139 L 15 10.139 C 14.342 10.127 13.684 10.101 13.026 10.139 C 12.585 10.161 12.191 10.219 11.903 10.587 C 11.765 10.764 11.784 10.942 11.998 10.979 C 12.697 11.112 12.864 11.528 12.892 12.002 C 12.932 12.74 12.948 13.227 12.932 13.967 C 12.915 14.34 12.851 14.71 12.742 15.067 C 12.65 15.324 12.438 15.377 12.215 15.225 C 12.058 15.119 11.917 14.99 11.797 14.843 C 10.939 13.747 10.245 12.531 9.738 11.233 C 9.675 11.039 9.551 10.871 9.386 10.752 C 9.22 10.633 9.021 10.57 8.818 10.572 C 8.772 10.572 6.031 10.516 5.884 10.572 C 5.654 10.664 5.579 10.931 5.654 11.211 C 5.674 11.295 6.506 13.064 6.549 13.146 C 7.36 14.791 8.269 16.386 9.406 17.838 C 10.097 18.763 10.976 19.531 11.985 20.093 C 12.917 20.576 13.95 20.832 15 20.838 C 15.288 20.845 15.58 20.84 15.871 20.825 C 16.342 20.796 16.607 20.533 16.636 20.114 C 16.686 19.651 16.777 19.193 16.906 18.745 C 17.071 18.331 17.419 18.27 17.77 18.541 C 17.92 18.656 18.061 18.783 18.191 18.921 C 18.631 19.374 19.033 19.851 19.483 20.284 C 19.88 20.667 20.413 20.878 20.964 20.871 C 21.075 20.871 23.209 20.932 23.646 20.871 C 24.341 20.772 24.571 20.22 24.198 19.642 Z" fill="white"></path>
</svg>
